<svg width="430" height="175" viewBox="0 0 430 175" fill="none" xmlns="http://www.w3.org/2000/svg">
<g clip-path="url(#clip0_3575_4717)">
<rect width="430" height="175" fill="white"/>
<path d="M76.8 112.2L66.8 60.6H66.4L56.4 112.2H76.8ZM26.4 162L58.2 19.6H75.2L107 162H86.6L80.6 131.4H52.8L46.8 162H26.4Z" fill="black"/>
<rect y="112" width="430" height="35" fill="#D9D9D9"/>
<path d="M124.032 162V93.648H133.824V117.744H134.016C135.104 116.144 136.384 114.928 137.856 114.096C139.392 113.2 141.12 112.752 143.04 112.752C145.408 112.752 147.232 113.168 148.512 114C149.856 114.832 150.944 115.888 151.776 117.168C152.416 118.192 152.832 119.536 153.024 121.2C153.216 122.864 153.312 125.456 153.312 128.976V147.504C153.312 150.192 153.184 152.336 152.928 153.936C152.672 155.536 152.256 156.88 151.68 157.968C150.016 161.04 147.168 162.576 143.136 162.576C140.704 162.576 138.848 162.096 137.568 161.136C136.288 160.176 135.04 158.992 133.824 157.584V162H124.032ZM143.52 128.304C143.52 126.768 143.168 125.424 142.464 124.272C141.824 123.12 140.576 122.544 138.72 122.544C137.312 122.544 136.128 123.056 135.168 124.08C134.272 125.04 133.824 126.288 133.824 127.824V146.736C133.824 148.528 134.272 150 135.168 151.152C136.064 152.24 137.248 152.784 138.72 152.784C140.384 152.784 141.6 152.176 142.368 150.96C143.136 149.744 143.52 148.144 143.52 146.16V128.304ZM192.545 141.36H173.153V147.984C173.153 149.52 173.569 150.704 174.401 151.536C175.297 152.368 176.481 152.784 177.953 152.784C179.809 152.784 181.025 152.24 181.601 151.152C182.241 150.064 182.625 148.976 182.753 147.888H192.545C192.545 152.176 191.233 155.632 188.609 158.256C187.329 159.6 185.793 160.656 184.001 161.424C182.209 162.192 180.193 162.576 177.953 162.576C174.881 162.576 172.257 161.936 170.081 160.656C167.969 159.376 166.337 157.68 165.185 155.568C164.481 154.288 164.001 152.816 163.745 151.152C163.489 149.488 163.361 147.664 163.361 145.68V129.648C163.361 127.664 163.489 125.84 163.745 124.176C164.001 122.512 164.481 121.04 165.185 119.76C166.337 117.648 167.969 115.952 170.081 114.672C172.257 113.392 174.881 112.752 177.953 112.752C180.193 112.752 182.209 113.136 184.001 113.904C185.857 114.672 187.425 115.728 188.705 117.072C191.265 119.952 192.545 123.568 192.545 127.92V141.36ZM173.153 133.68H182.753V128.112C182.753 126.256 182.305 124.88 181.409 123.984C180.577 123.024 179.425 122.544 177.953 122.544C176.481 122.544 175.297 123.024 174.401 123.984C173.569 124.88 173.153 126.256 173.153 128.112V133.68ZM202.06 93.648H211.852V148.272C211.852 150.128 212.172 151.408 212.812 152.112C213.516 152.752 214.796 153.168 216.652 153.36V162.576C214.412 162.576 212.396 162.384 210.604 162C208.812 161.68 207.276 161.008 205.996 159.984C204.716 159.024 203.724 157.68 203.02 155.952C202.38 154.16 202.06 151.824 202.06 148.944V93.648ZM222.464 129.648C222.464 127.664 222.592 125.84 222.848 124.176C223.104 122.512 223.584 121.04 224.288 119.76C225.44 117.648 227.072 115.952 229.184 114.672C231.36 113.392 233.984 112.752 237.056 112.752C240.128 112.752 242.72 113.392 244.832 114.672C247.008 115.952 248.672 117.648 249.824 119.76C250.528 121.04 251.008 122.512 251.264 124.176C251.52 125.84 251.648 127.664 251.648 129.648V145.68C251.648 147.664 251.52 149.488 251.264 151.152C251.008 152.816 250.528 154.288 249.824 155.568C248.672 157.68 247.008 159.376 244.832 160.656C242.72 161.936 240.128 162.576 237.056 162.576C233.984 162.576 231.36 161.936 229.184 160.656C227.072 159.376 225.44 157.68 224.288 155.568C223.584 154.288 223.104 152.816 222.848 151.152C222.592 149.488 222.464 147.664 222.464 145.68V129.648ZM232.256 147.216C232.256 149.072 232.672 150.48 233.504 151.44C234.4 152.336 235.584 152.784 237.056 152.784C238.528 152.784 239.68 152.336 240.512 151.44C241.408 150.48 241.856 149.072 241.856 147.216V128.112C241.856 126.256 241.408 124.88 240.512 123.984C239.68 123.024 238.528 122.544 237.056 122.544C235.584 122.544 234.4 123.024 233.504 123.984C232.672 124.88 232.256 126.256 232.256 128.112V147.216ZM261.74 162V93.648H271.532V118.032H271.724C272.748 116.496 273.964 115.248 275.372 114.288C276.844 113.264 278.7 112.752 280.94 112.752C282.156 112.752 283.372 112.976 284.588 113.424C285.804 113.808 286.892 114.48 287.852 115.44C288.812 116.4 289.58 117.648 290.156 119.184C290.732 120.656 291.02 122.48 291.02 124.656V162H281.228V128.304C281.228 126.512 280.812 125.104 279.98 124.08C279.148 123.056 277.964 122.544 276.428 122.544C274.572 122.544 273.292 123.12 272.588 124.272C271.884 125.424 271.532 127.088 271.532 129.264V162H261.74ZM301.068 129.648C301.068 127.664 301.196 125.84 301.452 124.176C301.708 122.512 302.188 121.04 302.892 119.76C304.044 117.648 305.676 115.952 307.788 114.672C309.964 113.392 312.588 112.752 315.66 112.752C318.732 112.752 321.324 113.392 323.436 114.672C325.612 115.952 327.276 117.648 328.428 119.76C329.132 121.04 329.612 122.512 329.868 124.176C330.124 125.84 330.252 127.664 330.252 129.648V145.68C330.252 147.664 330.124 149.488 329.868 151.152C329.612 152.816 329.132 154.288 328.428 155.568C327.276 157.68 325.612 159.376 323.436 160.656C321.324 161.936 318.732 162.576 315.66 162.576C312.588 162.576 309.964 161.936 307.788 160.656C305.676 159.376 304.044 157.68 302.892 155.568C302.188 154.288 301.708 152.816 301.452 151.152C301.196 149.488 301.068 147.664 301.068 145.68V129.648ZM310.86 147.216C310.86 149.072 311.276 150.48 312.108 151.44C313.004 152.336 314.188 152.784 315.66 152.784C317.132 152.784 318.284 152.336 319.116 151.44C320.012 150.48 320.46 149.072 320.46 147.216V128.112C320.46 126.256 320.012 124.88 319.116 123.984C318.284 123.024 317.132 122.544 315.66 122.544C314.188 122.544 313.004 123.024 312.108 123.984C311.276 124.88 310.86 126.256 310.86 128.112V147.216ZM358.103 126.96C358.039 125.296 357.495 124.048 356.471 123.216C355.511 122.384 354.391 121.968 353.111 121.968C351.575 121.968 350.391 122.48 349.559 123.504C348.727 124.464 348.311 125.584 348.311 126.864C348.311 127.76 348.535 128.656 348.983 129.552C349.431 130.384 350.583 131.152 352.439 131.856L358.199 134.16C361.847 135.568 364.343 137.488 365.687 139.92C367.095 142.352 367.799 145.008 367.799 147.888C367.799 149.936 367.415 151.856 366.647 153.648C365.943 155.376 364.951 156.912 363.671 158.256C362.391 159.6 360.855 160.656 359.063 161.424C357.271 162.192 355.319 162.576 353.207 162.576C349.239 162.576 345.911 161.328 343.223 158.832C341.879 157.616 340.791 156.112 339.959 154.32C339.127 152.464 338.679 150.32 338.615 147.888H347.831C348.023 149.232 348.471 150.48 349.175 151.632C349.943 152.784 351.255 153.36 353.111 153.36C354.519 153.36 355.767 152.912 356.855 152.016C358.007 151.056 358.583 149.744 358.583 148.08C358.583 146.736 358.231 145.584 357.527 144.624C356.823 143.664 355.543 142.832 353.687 142.128L348.983 140.4C345.911 139.248 343.479 137.552 341.687 135.312C339.959 133.008 339.095 130.224 339.095 126.96C339.095 124.912 339.479 123.024 340.247 121.296C341.015 119.504 342.071 117.968 343.415 116.688C344.695 115.408 346.199 114.448 347.927 113.808C349.655 113.104 351.511 112.752 353.495 112.752C355.479 112.752 357.303 113.104 358.967 113.808C360.695 114.512 362.167 115.504 363.383 116.784C364.599 118.064 365.559 119.6 366.263 121.392C366.967 123.12 367.319 124.976 367.319 126.96H358.103ZM376.973 113.328V98.544H386.765V113.328H392.813V121.008H386.765V147.984C386.765 149.136 386.861 150.032 387.053 150.672C387.309 151.312 387.693 151.792 388.205 152.112C388.717 152.432 389.325 152.624 390.029 152.688C390.797 152.752 391.725 152.784 392.813 152.784V162H388.781C386.541 162 384.653 161.648 383.117 160.944C381.645 160.24 380.461 159.344 379.565 158.256C378.669 157.168 377.997 155.952 377.549 154.608C377.165 153.2 376.973 151.856 376.973 150.576V121.008H372.077V113.328H376.973Z" fill="black"/>
</g>
<defs>
<clipPath id="clip0_3575_4717">
<rect width="430" height="175" fill="white"/>
</clipPath>
</defs>
</svg>
